<?xml version="1.0" standalone="no"?>
<!DOCTYPE svg PUBLIC "-//W3C//DTD SVG 20010904//EN"
 "http://www.w3.org/TR/2001/REC-SVG-20010904/DTD/svg10.dtd">
<svg version="1.0" xmlns="http://www.w3.org/2000/svg"
 width="700.000000pt" height="700.000000pt" viewBox="0 0 700.000000 700.000000"
 preserveAspectRatio="xMidYMid meet">
<metadata>
Created by potrace 1.11, written by Peter Selinger 2001-2013
</metadata>
<g transform="translate(0.000000,700.000000) scale(0.100000,-0.100000)"
fill="#000000" stroke="none">
<path d="M3218 6815 c-2 -1 -42 -5 -89 -8 -140 -11 -351 -43 -489 -77 -1026
-247 -1871 -978 -2258 -1955 -68 -171 -151 -454 -167 -568 -3 -23 -8 -49 -10
-57 -9 -30 -34 -229 -41 -321 -13 -169 -7 -505 11 -612 2 -12 9 -60 15 -107
52 -387 207 -823 420 -1180 135 -226 278 -410 488 -627 24 -25 46 -43 48 -40
3 3 7 27 9 54 4 48 10 116 20 228 3 33 7 69 9 80 2 11 7 56 10 100 4 44 9 91
11 105 2 14 6 52 10 85 6 64 52 443 61 510 13 95 15 111 19 135 3 14 7 50 10
80 3 30 8 62 10 70 2 8 7 38 10 65 3 28 8 61 10 75 10 61 25 159 30 200 3 25
13 85 21 135 15 87 18 107 28 170 15 98 19 122 21 135 7 40 55 341 60 380 3
25 8 52 10 60 2 8 6 38 10 65 3 28 10 75 15 105 6 30 13 71 16 90 3 19 7 121
9 225 5 266 13 391 29 454 35 128 99 121 168 -21 38 -75 57 -122 63 -148 2 -8
33 -112 70 -230 127 -408 277 -895 292 -945 26 -88 174 -546 208 -645 48 -140
65 -171 89 -168 20 3 42 37 51 76 6 28 111 369 145 472 58 174 239 694 260
745 4 11 17 45 28 75 165 450 355 878 509 1149 138 242 237 384 337 483 116
114 187 141 204 75 7 -26 -15 -164 -44 -282 -3 -11 -7 -31 -10 -45 -21 -111
-44 -240 -48 -265 -3 -16 -12 -70 -20 -120 -20 -123 -38 -242 -51 -350 -4 -27
-8 -61 -11 -75 -2 -14 -15 -122 -29 -240 -14 -118 -27 -228 -30 -245 -2 -16
-7 -57 -10 -90 -4 -33 -8 -71 -10 -85 -2 -14 -7 -65 -10 -115 -3 -49 -8 -97
-10 -105 -2 -8 -6 -53 -10 -100 -3 -47 -8 -101 -10 -120 -3 -19 -7 -71 -10
-115 -5 -76 -12 -178 -20 -275 -4 -51 -16 -262 -21 -360 -4 -101 -4 -611 0
-650 2 -19 7 -75 11 -124 4 -50 8 -97 10 -106 2 -10 6 -41 10 -71 14 -111 59
-276 95 -349 28 -57 33 -95 15 -114 -62 -62 -285 64 -380 214 -80 127 -145
316 -160 472 -3 29 -8 59 -10 66 -24 70 -25 707 -1 897 2 17 7 71 11 120 3 50
8 101 10 115 2 14 7 59 10 100 10 119 15 160 25 240 5 41 12 100 15 130 3 30
8 66 10 80 2 14 7 50 10 80 3 30 8 62 10 70 2 8 6 35 9 60 3 25 10 77 15 115
6 39 13 93 16 120 3 28 8 62 11 77 3 15 7 42 9 60 2 18 10 73 16 122 11 82 11
90 -5 102 -14 10 -22 10 -37 1 -33 -20 -159 -287 -261 -552 -97 -254 -178
-495 -328 -980 -46 -148 -134 -448 -155 -530 -13 -49 -38 -142 -55 -205 -16
-63 -60 -230 -96 -370 -69 -261 -90 -322 -122 -339 -25 -14 -58 10 -77 55 -12
29 -102 359 -250 919 -15 55 -40 152 -57 215 -75 283 -126 474 -133 504 -3 11
-25 97 -51 190 -91 337 -92 338 -124 298 -15 -18 -24 -51 -46 -167 -2 -11 -6
-31 -9 -45 -10 -53 -41 -271 -50 -355 -3 -33 -8 -71 -10 -85 -10 -68 -29 -315
-40 -535 -4 -71 -9 -146 -11 -165 -2 -19 -6 -188 -9 -375 -7 -468 -16 -707
-31 -840 -3 -33 -8 -71 -9 -85 -1 -14 -6 -50 -10 -80 -5 -30 -8 -64 -9 -74 -1
-14 26 -39 89 -84 246 -175 567 -337 855 -431 64 -21 275 -79 315 -86 11 -2
34 -7 50 -10 235 -47 375 -60 635 -60 251 0 372 9 550 42 47 8 96 17 110 19
20 4 171 41 272 68 60 16 250 86 348 128 123 52 355 171 381 194 8 8 19 14 23
14 19 0 222 143 361 254 94 76 329 302 406 391 442 514 716 1154 776 1817 10
107 10 511 0 608 -62 615 -260 1122 -644 1650 -18 24 -109 135 -128 156 -5 7
-39 44 -74 83 -35 39 -66 71 -70 71 -3 0 -17 -37 -30 -83 -39 -132 -160 -465
-199 -547 -47 -100 -76 -142 -110 -163 -28 -16 -30 -16 -44 1 -33 38 -42 95
-42 267 0 119 7 237 19 325 3 19 7 60 10 90 3 31 8 67 10 80 13 61 33 206 30
220 -1 8 -5 32 -9 52 -26 142 -238 55 -404 -165 -56 -74 -180 -318 -237 -467
-107 -277 -189 -574 -239 -865 -3 -16 -8 -41 -10 -55 -3 -14 -8 -41 -10 -60
-3 -19 -8 -46 -10 -60 -3 -14 -10 -65 -16 -115 -6 -49 -13 -103 -15 -120 -36
-275 -37 -663 -4 -920 48 -371 167 -703 299 -833 56 -55 98 -74 170 -80 64 -4
75 -2 142 30 132 63 306 263 394 452 84 184 167 492 198 741 13 107 18 155 21
215 18 326 21 373 30 443 17 119 108 59 172 -113 25 -69 26 -277 2 -409 -87
-477 -298 -1004 -523 -1311 -107 -146 -306 -342 -391 -386 -16 -8 -32 -19 -35
-23 -8 -12 -142 -77 -195 -94 -67 -22 -130 -26 -191 -12 -56 13 -148 65 -175
99 -9 11 -27 32 -39 46 -65 73 -177 289 -204 395 -1 6 -9 33 -18 60 -52 160
-99 359 -113 476 -3 30 -8 68 -10 84 -3 17 -7 66 -10 110 -4 44 -8 86 -11 93
-5 17 -5 429 1 497 4 54 14 161 21 240 3 28 6 61 9 75 2 14 7 50 10 80 3 30
10 74 16 98 5 23 12 59 15 80 12 79 66 313 100 430 106 368 287 771 451 1010
54 78 259 285 353 357 74 57 232 141 283 150 31 6 43 1 108 -46 131 -94 231
-177 363 -301 33 -31 62 -56 63 -54 3 3 67 256 82 326 23 108 32 244 19 305
-20 90 -56 93 -204 20 -99 -50 -188 -125 -205 -174 -13 -38 -28 -43 -139 -55
l-65 -7 -100 62 c-105 65 -325 178 -435 224 -169 71 -482 167 -615 189 -16 2
-53 9 -82 15 -50 10 -83 14 -198 27 -27 3 -63 8 -80 10 -31 5 -442 13 -447 9z"/>
<path d="M1149 1234 c0 -11 -3 -37 -6 -59 -8 -57 -9 -615 -1 -645 4 -14 7 -32
7 -41 1 -9 10 -28 22 -43 18 -23 23 -24 40 -13 29 21 115 160 120 194 2 9 2
11 24 78 29 89 76 295 70 305 -3 6 -38 35 -76 66 -39 31 -99 83 -135 116 -49
46 -64 56 -65 42z"/>
</g>
</svg>
