<?xml version="1.0" standalone="no"?><!-- Generator: Gravit.io --><svg xmlns="http://www.w3.org/2000/svg" xmlns:xlink="http://www.w3.org/1999/xlink" style="isolation:isolate" viewBox="0 0 500 500" width="500" height="500"><defs><clipPath id="_clipPath_tpD6BPt42xbGt6cPXS51oZYkKUUkHCVb"><rect width="500" height="500"/></clipPath></defs><g clip-path="url(#_clipPath_tpD6BPt42xbGt6cPXS51oZYkKUUkHCVb)"><path d=" M 370.082 51.778 C 333.416 27.285 289.363 13 242 13 C 114.508 13 11 116.508 11 244 C 11 309.453 38.281 368.585 82.083 410.634 Q 79.085 449.475 81.9 463.946 L 82.739 467.003 Q 84.033 470.255 85.984 469.478 Q 87.935 468.702 90.348 464.352 L 92.174 461.366 Q 93.999 458.38 96.451 450.813 Q 98.902 443.245 101.294 432.689 Q 101.799 430.463 102.262 427.903 Q 102.262 427.903 102.262 427.903 C 102.262 427.903 102.262 427.904 102.263 427.904 C 102.263 427.904 102.263 427.904 102.263 427.904 C 141.074 457.451 189.504 475 242 475 C 369.492 475 473 371.492 473 244 C 473 180.763 447.535 123.427 406.309 81.696 C 406.308 81.695 406.308 81.695 406.307 81.694 Q 406.307 81.694 406.307 81.694 Q 408.945 72.179 411.429 60.892 Q 415.788 41.078 412.942 33.923 Q 411.13 29.37 406.577 31.181 L 403.976 32.216 Q 389.016 38.167 384.386 46.413 Q 383.991 49.207 381.714 50.113 Q 380.739 50.501 379.959 50.434 Q 375.261 50.425 370.082 51.778 M 82.085 410.635 Q 82.926 399.743 84.224 386.935 Q 90.151 328.452 97.978 279.006 L 105.935 229.886 L 111.531 191.876 Q 109.728 148.522 116.882 145.675 Q 121.76 143.735 128.359 160.321 Q 166.404 285.31 173.261 302.546 Q 175.202 307.424 177.153 306.648 Q 179.104 305.872 180.283 301.259 Q 182.311 294.049 186.039 281.642 Q 189.767 269.235 201.203 236.435 Q 212.638 203.635 223.576 176.683 Q 234.513 149.732 249.512 123.047 Q 264.51 96.363 277.267 86.768 Q 280.26 84.824 281.236 84.436 Q 285.139 82.884 286.303 85.811 Q 287.338 88.412 285.964 93.479 Q 278.756 124.597 272.82 170.277 Q 266.885 215.956 264.618 246.239 L 262.351 276.521 Q 256.541 359.442 268.572 389.687 Q 268.831 390.337 269.77 392.224 Q 270.709 394.11 271.226 395.411 Q 273.296 400.614 270.369 401.779 Q 264.841 403.978 254.52 396.972 Q 244.199 389.966 237.86 374.03 Q 232.038 359.396 230.621 335.476 Q 229.204 311.555 232.06 278.966 Q 234.916 246.378 237.586 226.105 Q 240.257 205.832 244.933 173.084 Q 245.132 170.744 244.744 169.769 Q 243.447 168.402 242.471 168.79 Q 240.52 169.566 239.215 171.968 Q 226.238 195.211 209.896 245.031 Q 193.554 294.85 183.863 332.983 L 173.847 371.245 Q 171.748 381.12 168.496 382.414 Q 167.521 382.802 166.611 382.41 Q 165.702 382.019 164.924 381.01 Q 164.146 380.001 163.595 379.09 Q 163.045 378.179 162.786 377.529 L 162.527 376.878 Q 156.782 355.809 146.812 317.965 Q 136.842 280.12 129.936 254.239 Q 123.031 228.359 122.772 227.708 Q 121.478 224.456 120.178 224.974 Q 119.527 225.232 118.777 226.661 Q 118.027 228.089 117.765 229.324 L 117.502 230.558 Q 111.798 256.935 108.994 296.283 Q 106.191 335.631 106.525 364.879 Q 106.616 385.937 105.152 404.035 Q 103.996 418.318 102.263 427.904 Q 102.263 427.904 102.263 427.904 C 102.262 427.904 102.262 427.904 102.262 427.903 C 95.207 422.533 88.47 416.765 82.085 410.635 M 370.082 51.778 Z  M 370.083 51.779 C 383.159 60.514 395.295 70.548 406.307 81.694 C 406.308 81.695 406.308 81.695 406.309 81.695 Q 406.309 81.696 406.309 81.696 Q 404.316 88.885 402.234 95.063 Q 397.397 109.417 393.348 120.069 Q 386.361 137.539 381.482 139.479 Q 379.206 140.385 377.912 137.133 Q 373.384 125.751 378.725 85.205 Q 378.791 84.425 379.907 78.708 Q 381.023 72.99 381.094 69.383 Q 381.166 65.776 380.131 63.174 Q 377.932 57.646 369.151 61.139 Q 361.997 63.985 355.19 71.967 Q 348.383 79.948 345.316 86.442 L 341.924 93.065 Q 320.13 138.649 313.089 201.907 Q 306.048 265.165 322.996 307.767 Q 335.287 338.662 354.8 330.9 Q 357.401 329.865 360.557 327.856 Q 363.713 325.847 370.518 318.808 Q 377.323 311.769 382.639 301.933 Q 387.954 292.096 393.025 274.07 Q 398.096 256.044 400.153 233.755 Q 400.685 227.517 401.096 216.241 Q 401.507 204.966 402.135 199.442 Q 402.763 193.919 404.389 193.272 Q 406.665 192.367 409.583 195.914 Q 412.501 199.462 413.666 202.389 Q 418.453 214.422 415.627 230.99 Q 412.864 248.663 406.751 267.857 Q 400.638 287.051 391.047 306.498 Q 381.456 325.946 366.933 341.517 Q 352.41 357.088 335.499 363.815 Q 308.507 374.553 292.465 334.227 Q 272.153 283.169 279.657 215.395 Q 287.162 147.621 319.24 93.802 Q 321.261 90.361 325.073 85.266 Q 328.884 80.171 340.571 69.307 Q 352.258 58.442 363.64 53.914 Q 366.95 52.598 370.083 51.779 Z " fill="rgb(140,19,41)"/></g></svg>